<svg xmlns="http://www.w3.org/2000/svg" xmlns:xlink="http://www.w3.org/1999/xlink" width="375" viewBox="0 0 375 375" height="375" version="1.0"><defs><clipPath id="a"><path d="M 7 7 L 368 7 L 368 368 L 7 368 Z M 7 7"/></clipPath><clipPath id="b"><path d="M 59.882812 7.527344 L 315.117188 7.527344 C 316.832031 7.527344 318.542969 7.609375 320.25 7.777344 C 321.957031 7.945312 323.648438 8.199219 325.332031 8.53125 C 327.015625 8.867188 328.675781 9.28125 330.316406 9.78125 C 331.957031 10.277344 333.570312 10.855469 335.152344 11.511719 C 336.738281 12.167969 338.285156 12.898438 339.796875 13.707031 C 341.308594 14.515625 342.78125 15.398438 344.207031 16.351562 C 345.632812 17.300781 347.007812 18.324219 348.332031 19.410156 C 349.65625 20.5 350.925781 21.648438 352.140625 22.859375 C 353.351562 24.074219 354.5 25.34375 355.589844 26.667969 C 356.675781 27.992188 357.699219 29.367188 358.648438 30.792969 C 359.601562 32.21875 360.484375 33.691406 361.292969 35.203125 C 362.101562 36.714844 362.832031 38.261719 363.488281 39.847656 C 364.144531 41.429688 364.722656 43.042969 365.21875 44.683594 C 365.71875 46.324219 366.132812 47.984375 366.46875 49.667969 C 366.800781 51.351562 367.054688 53.042969 367.222656 54.75 C 367.390625 56.457031 367.472656 58.167969 367.472656 59.882812 L 367.472656 315.117188 C 367.472656 316.832031 367.390625 318.542969 367.222656 320.25 C 367.054688 321.957031 366.800781 323.648438 366.46875 325.332031 C 366.132812 327.015625 365.71875 328.675781 365.21875 330.316406 C 364.722656 331.957031 364.144531 333.570312 363.488281 335.152344 C 362.832031 336.738281 362.101562 338.285156 361.292969 339.796875 C 360.484375 341.308594 359.601562 342.78125 358.648438 344.207031 C 357.699219 345.632812 356.675781 347.007812 355.589844 348.332031 C 354.5 349.65625 353.351562 350.925781 352.140625 352.140625 C 350.925781 353.351562 349.65625 354.5 348.332031 355.589844 C 347.007812 356.675781 345.632812 357.699219 344.207031 358.648438 C 342.78125 359.601562 341.308594 360.484375 339.796875 361.292969 C 338.285156 362.101562 336.738281 362.832031 335.152344 363.488281 C 333.570312 364.144531 331.957031 364.722656 330.316406 365.21875 C 328.675781 365.71875 327.015625 366.132812 325.332031 366.46875 C 323.648438 366.800781 321.957031 367.054688 320.25 367.222656 C 318.542969 367.390625 316.832031 367.472656 315.117188 367.472656 L 59.882812 367.472656 C 58.167969 367.472656 56.457031 367.390625 54.75 367.222656 C 53.042969 367.054688 51.351562 366.800781 49.667969 366.46875 C 47.984375 366.132812 46.324219 365.71875 44.683594 365.21875 C 43.042969 364.722656 41.429688 364.144531 39.847656 363.488281 C 38.261719 362.832031 36.714844 362.101562 35.203125 361.292969 C 33.691406 360.484375 32.21875 359.601562 30.792969 358.648438 C 29.367188 357.699219 27.992188 356.675781 26.667969 355.589844 C 25.34375 354.5 24.074219 353.351562 22.859375 352.140625 C 21.648438 350.925781 20.5 349.65625 19.410156 348.332031 C 18.324219 347.007812 17.300781 345.632812 16.351562 344.207031 C 15.398438 342.78125 14.515625 341.308594 13.707031 339.796875 C 12.898438 338.285156 12.167969 336.738281 11.511719 335.152344 C 10.855469 333.570312 10.277344 331.957031 9.78125 330.316406 C 9.28125 328.675781 8.867188 327.015625 8.53125 325.332031 C 8.199219 323.648438 7.945312 321.957031 7.777344 320.25 C 7.609375 318.542969 7.527344 316.832031 7.527344 315.117188 L 7.527344 59.882812 C 7.527344 58.167969 7.609375 56.457031 7.777344 54.75 C 7.945312 53.042969 8.199219 51.351562 8.53125 49.667969 C 8.867188 47.984375 9.28125 46.324219 9.78125 44.683594 C 10.277344 43.042969 10.855469 41.429688 11.511719 39.847656 C 12.167969 38.261719 12.898438 36.714844 13.707031 35.203125 C 14.515625 33.691406 15.398438 32.21875 16.351562 30.792969 C 17.300781 29.367188 18.324219 27.992188 19.410156 26.667969 C 20.5 25.34375 21.648438 24.074219 22.859375 22.859375 C 24.074219 21.648438 25.34375 20.5 26.667969 19.410156 C 27.992188 18.324219 29.367188 17.300781 30.792969 16.351562 C 32.21875 15.398438 33.691406 14.515625 35.203125 13.707031 C 36.714844 12.898438 38.261719 12.167969 39.847656 11.511719 C 41.429688 10.855469 43.042969 10.277344 44.683594 9.78125 C 46.324219 9.28125 47.984375 8.867188 49.667969 8.53125 C 51.351562 8.199219 53.042969 7.945312 54.75 7.777344 C 56.457031 7.609375 58.167969 7.527344 59.882812 7.527344 Z M 59.882812 7.527344"/></clipPath><clipPath id="d"><path d="M 30 30 L 345 30 L 345 345 L 30 345 Z M 30 30"/></clipPath><clipPath id="e"><path d="M 63.15625 30.433594 L 311.84375 30.433594 C 312.917969 30.433594 313.988281 30.484375 315.054688 30.589844 C 316.121094 30.695312 317.179688 30.851562 318.230469 31.0625 C 319.28125 31.269531 320.320312 31.53125 321.34375 31.839844 C 322.371094 32.152344 323.378906 32.511719 324.367188 32.921875 C 325.359375 33.332031 326.324219 33.789062 327.269531 34.296875 C 328.214844 34.800781 329.132812 35.351562 330.023438 35.945312 C 330.917969 36.542969 331.777344 37.179688 332.605469 37.859375 C 333.433594 38.539062 334.226562 39.257812 334.984375 40.015625 C 335.742188 40.773438 336.460938 41.566406 337.140625 42.394531 C 337.820312 43.222656 338.457031 44.082031 339.054688 44.976562 C 339.648438 45.867188 340.199219 46.785156 340.703125 47.730469 C 341.210938 48.675781 341.667969 49.640625 342.078125 50.632812 C 342.488281 51.621094 342.847656 52.628906 343.160156 53.65625 C 343.46875 54.679688 343.730469 55.71875 343.9375 56.769531 C 344.148438 57.820312 344.304688 58.878906 344.410156 59.945312 C 344.515625 61.011719 344.566406 62.082031 344.566406 63.15625 L 344.566406 311.84375 C 344.566406 312.917969 344.515625 313.988281 344.410156 315.054688 C 344.304688 316.121094 344.148438 317.179688 343.9375 318.230469 C 343.730469 319.28125 343.46875 320.320312 343.160156 321.34375 C 342.847656 322.371094 342.488281 323.378906 342.078125 324.367188 C 341.667969 325.359375 341.210938 326.324219 340.703125 327.269531 C 340.199219 328.214844 339.648438 329.132812 339.054688 330.023438 C 338.457031 330.917969 337.820312 331.777344 337.140625 332.605469 C 336.460938 333.433594 335.742188 334.226562 334.984375 334.984375 C 334.226562 335.742188 333.433594 336.460938 332.605469 337.140625 C 331.777344 337.820312 330.917969 338.457031 330.023438 339.054688 C 329.132812 339.648438 328.214844 340.199219 327.269531 340.703125 C 326.324219 341.210938 325.359375 341.667969 324.367188 342.078125 C 323.378906 342.488281 322.371094 342.847656 321.34375 343.160156 C 320.320312 343.46875 319.28125 343.730469 318.230469 343.9375 C 317.179688 344.148438 316.121094 344.304688 315.054688 344.410156 C 313.988281 344.515625 312.917969 344.566406 311.84375 344.566406 L 63.15625 344.566406 C 62.082031 344.566406 61.011719 344.515625 59.945312 344.410156 C 58.878906 344.304688 57.820312 344.148438 56.769531 343.9375 C 55.71875 343.730469 54.679688 343.46875 53.65625 343.160156 C 52.628906 342.847656 51.621094 342.488281 50.632812 342.078125 C 49.640625 341.667969 48.675781 341.210938 47.730469 340.703125 C 46.785156 340.199219 45.867188 339.648438 44.976562 339.054688 C 44.082031 338.457031 43.222656 337.820312 42.394531 337.140625 C 41.566406 336.460938 40.773438 335.742188 40.015625 334.984375 C 39.257812 334.226562 38.539062 333.433594 37.859375 332.605469 C 37.179688 331.777344 36.542969 330.917969 35.945312 330.023438 C 35.351562 329.132812 34.800781 328.214844 34.296875 327.269531 C 33.789062 326.324219 33.332031 325.359375 32.921875 324.367188 C 32.511719 323.378906 32.152344 322.371094 31.839844 321.34375 C 31.53125 320.320312 31.269531 319.28125 31.0625 318.230469 C 30.851562 317.179688 30.695312 316.121094 30.589844 315.054688 C 30.484375 313.988281 30.433594 312.917969 30.433594 311.84375 L 30.433594 63.15625 C 30.433594 62.082031 30.484375 61.011719 30.589844 59.945312 C 30.695312 58.878906 30.851562 57.820312 31.0625 56.769531 C 31.269531 55.71875 31.53125 54.679688 31.839844 53.65625 C 32.152344 52.628906 32.511719 51.621094 32.921875 50.632812 C 33.332031 49.640625 33.789062 48.675781 34.296875 47.730469 C 34.800781 46.785156 35.351562 45.867188 35.945312 44.976562 C 36.542969 44.082031 37.179688 43.222656 37.859375 42.394531 C 38.539062 41.566406 39.257812 40.773438 40.015625 40.015625 C 40.773438 39.257812 41.566406 38.539062 42.394531 37.859375 C 43.222656 37.179688 44.082031 36.542969 44.976562 35.945312 C 45.867188 35.351562 46.785156 34.800781 47.730469 34.296875 C 48.675781 33.789062 49.640625 33.332031 50.632812 32.921875 C 51.621094 32.511719 52.628906 32.152344 53.65625 31.839844 C 54.679688 31.53125 55.71875 31.269531 56.769531 31.0625 C 57.820312 30.851562 58.878906 30.695312 59.945312 30.589844 C 61.011719 30.484375 62.082031 30.433594 63.15625 30.433594 Z M 63.15625 30.433594"/></clipPath><linearGradient x1="286.5" gradientTransform="scale(.65445)" y1="11.5" x2="286.5" gradientUnits="userSpaceOnUse" y2="561.5" xlink:type="simple" xlink:actuate="onLoad" id="c" xlink:show="other"><stop stop-color="#A7A9AC" offset="0"/><stop stop-color="#A8AAAD" offset=".004"/><stop stop-color="#A9ABAE" offset=".008"/><stop stop-color="#A9ABAE" offset=".012"/><stop stop-color="#AAACAF" offset=".016"/><stop stop-color="#ABADB0" offset=".02"/><stop stop-color="#ACAEB1" offset=".023"/><stop stop-color="#ACAEB1" offset=".027"/><stop stop-color="#ADAFB2" offset=".031"/><stop stop-color="#AEB0B3" offset=".035"/><stop stop-color="#AFB1B4" offset=".039"/><stop stop-color="#AFB1B4" offset=".043"/><stop stop-color="#B0B2B5" offset=".047"/><stop stop-color="#B1B3B6" offset=".051"/><stop stop-color="#B2B3B6" offset=".055"/><stop stop-color="#B2B4B7" offset=".059"/><stop stop-color="#B3B5B8" offset=".063"/><stop stop-color="#B4B6B8" offset=".066"/><stop stop-color="#B4B6B9" offset=".07"/><stop stop-color="#B5B7BA" offset=".074"/><stop stop-color="#B6B8BA" offset=".078"/><stop stop-color="#B7B8BB" offset=".082"/><stop stop-color="#B7B9BC" offset=".086"/><stop stop-color="#B8BABC" offset=".09"/><stop stop-color="#B9BBBD" offset=".094"/><stop stop-color="#BABBBE" offset=".098"/><stop stop-color="#BABCBF" offset=".102"/><stop stop-color="#BBBDBF" offset=".105"/><stop stop-color="#BCBDC0" offset=".109"/><stop stop-color="#BDBEC1" offset=".113"/><stop stop-color="#BDBFC1" offset=".117"/><stop stop-color="#BEBFC2" offset=".121"/><stop stop-color="#BFC0C3" offset=".125"/><stop stop-color="#BFC1C3" offset=".129"/><stop stop-color="#C0C2C4" offset=".133"/><stop stop-color="#C1C2C5" offset=".137"/><stop stop-color="#C2C3C5" offset=".141"/><stop stop-color="#C2C4C6" offset=".145"/><stop stop-color="#C3C4C7" offset=".148"/><stop stop-color="#C4C5C7" offset=".152"/><stop stop-color="#C5C6C8" offset=".156"/><stop stop-color="#C5C7C9" offset=".16"/><stop stop-color="#C6C7C9" offset=".164"/><stop stop-color="#C7C8CA" offset=".168"/><stop stop-color="#C8C9CB" offset=".172"/><stop stop-color="#C8C9CC" offset=".176"/><stop stop-color="#C9CACC" offset=".18"/><stop stop-color="#CACBCD" offset=".184"/><stop stop-color="#CBCCCE" offset=".188"/><stop stop-color="#CBCCCE" offset=".191"/><stop stop-color="#CCCDCF" offset=".195"/><stop stop-color="#CCCDCF" offset=".199"/><stop stop-color="#CDCED0" offset=".203"/><stop stop-color="#CDCED0" offset=".207"/><stop stop-color="#CECFD1" offset=".211"/><stop stop-color="#CECFD1" offset=".215"/><stop stop-color="#CFD0D2" offset=".219"/><stop stop-color="#CFD0D2" offset=".223"/><stop stop-color="#D0D1D3" offset=".227"/><stop stop-color="#D0D1D3" offset=".23"/><stop stop-color="#D1D2D4" offset=".234"/><stop stop-color="#D1D3D4" offset=".238"/><stop stop-color="#D2D3D5" offset=".242"/><stop stop-color="#D3D4D5" offset=".246"/><stop stop-color="#D3D4D6" offset=".25"/><stop stop-color="#D4D5D6" offset=".254"/><stop stop-color="#D4D5D7" offset=".258"/><stop stop-color="#D5D6D7" offset=".262"/><stop stop-color="#D5D6D8" offset=".266"/><stop stop-color="#D6D7D8" offset=".27"/><stop stop-color="#D6D7D9" offset=".273"/><stop stop-color="#D7D8D9" offset=".277"/><stop stop-color="#D7D8DA" offset=".281"/><stop stop-color="#D8D9DA" offset=".285"/><stop stop-color="#D8D9DB" offset=".289"/><stop stop-color="#D9DADB" offset=".293"/><stop stop-color="#D9DADC" offset=".297"/><stop stop-color="#DADBDC" offset=".301"/><stop stop-color="#DADBDD" offset=".305"/><stop stop-color="#DBDCDD" offset=".309"/><stop stop-color="#DCDDDE" offset=".313"/><stop stop-color="#DCDDDE" offset=".316"/><stop stop-color="#DDDEDF" offset=".32"/><stop stop-color="#DDDEDF" offset=".324"/><stop stop-color="#DEDFE0" offset=".328"/><stop stop-color="#DEDFE0" offset=".332"/><stop stop-color="#DFE0E1" offset=".336"/><stop stop-color="#DFE0E1" offset=".34"/><stop stop-color="#E0E1E2" offset=".344"/><stop stop-color="#E0E1E2" offset=".348"/><stop stop-color="#E1E2E3" offset=".352"/><stop stop-color="#E1E2E3" offset=".355"/><stop stop-color="#E2E3E4" offset=".359"/><stop stop-color="#E2E3E4" offset=".367"/><stop stop-color="#E3E4E5" offset=".375"/><stop stop-color="#E4E5E6" offset=".383"/><stop stop-color="#E4E5E6" offset=".391"/><stop stop-color="#E5E6E7" offset=".398"/><stop stop-color="#E6E7E8" offset=".406"/><stop stop-color="#E6E7E8" offset=".414"/><stop stop-color="#E7E8E9" offset=".422"/><stop stop-color="#E8E9E9" offset=".43"/><stop stop-color="#E8EAEA" offset=".438"/><stop stop-color="#E9EAEB" offset=".445"/><stop stop-color="#EAEBEB" offset=".453"/><stop stop-color="#EBECEC" offset=".461"/><stop stop-color="#EBECED" offset=".469"/><stop stop-color="#ECEDED" offset=".477"/><stop stop-color="#EDEEEE" offset=".484"/><stop stop-color="#EDEEEF" offset=".492"/><stop stop-color="#EEEFEF" offset=".5"/><stop stop-color="#EFF0F0" offset=".508"/><stop stop-color="#EFF0F1" offset=".516"/><stop stop-color="#F0F1F1" offset=".523"/><stop stop-color="#F1F2F2" offset=".531"/><stop stop-color="#F2F3F3" offset=".539"/><stop stop-color="#F2F3F3" offset=".547"/><stop stop-color="#F3F4F4" offset=".563"/><stop stop-color="#F3F4F4" offset=".578"/><stop stop-color="#F4F5F5" offset=".594"/><stop stop-color="#F5F6F6" offset=".609"/><stop stop-color="#F6F6F6" offset=".625"/><stop stop-color="#F7F7F7" offset=".641"/><stop stop-color="#F7F8F8" offset=".656"/><stop stop-color="#F8F9F9" offset=".672"/><stop stop-color="#F9F9F9" offset=".688"/><stop stop-color="#FAFAFA" offset=".703"/><stop stop-color="#FAFBFB" offset=".719"/><stop stop-color="#FBFBFB" offset=".734"/><stop stop-color="#FCFCFC" offset=".75"/><stop stop-color="#FCFCFC" offset=".813"/><stop stop-color="#FDFDFD" offset=".875"/><stop stop-color="#FEFEFE" offset=".938"/><stop stop-color="#FFF" offset="1"/></linearGradient><linearGradient x1="286.5" gradientTransform="scale(.65445)" y1="46.5" x2="286.5" gradientUnits="userSpaceOnUse" y2="526.5" xlink:type="simple" xlink:actuate="onLoad" id="f" xlink:show="other"><stop stop-color="#FFF" offset="0"/><stop stop-color="#FFF" offset=".063"/><stop stop-color="#FEFEFE" offset=".125"/><stop stop-color="#FDFDFD" offset=".188"/><stop stop-color="#FDFDFD" offset=".25"/><stop stop-color="#FCFCFC" offset=".313"/><stop stop-color="#FBFBFB" offset=".328"/><stop stop-color="#FBFBFB" offset=".344"/><stop stop-color="#FAFAFA" offset=".359"/><stop stop-color="#FAFAFA" offset=".375"/><stop stop-color="#F9F9F9" offset=".391"/><stop stop-color="#F8F8F8" offset=".406"/><stop stop-color="#F8F8F8" offset=".422"/><stop stop-color="#F7F7F7" offset=".438"/><stop stop-color="#F6F6F6" offset=".453"/><stop stop-color="#F6F6F6" offset=".469"/><stop stop-color="#F5F5F5" offset=".484"/><stop stop-color="#F4F4F4" offset=".5"/><stop stop-color="#F4F4F4" offset=".516"/><stop stop-color="#F3F3F3" offset=".523"/><stop stop-color="#F2F2F2" offset=".531"/><stop stop-color="#F2F2F2" offset=".539"/><stop stop-color="#F1F1F1" offset=".547"/><stop stop-color="#F0F0F0" offset=".555"/><stop stop-color="#F0F0F0" offset=".563"/><stop stop-color="#EFEFEF" offset=".57"/><stop stop-color="#EEE" offset=".578"/><stop stop-color="#EEE" offset=".586"/><stop stop-color="#EDEDED" offset=".594"/><stop stop-color="#ECECEC" offset=".602"/><stop stop-color="#EBEBEB" offset=".609"/><stop stop-color="#EBEBEB" offset=".617"/><stop stop-color="#EAEAEA" offset=".625"/><stop stop-color="#E9E9E9" offset=".633"/><stop stop-color="#E9E9E9" offset=".641"/><stop stop-color="#E8E8E8" offset=".648"/><stop stop-color="#E7E7E7" offset=".656"/><stop stop-color="#E7E7E7" offset=".664"/><stop stop-color="#E6E6E6" offset=".672"/><stop stop-color="#E5E5E5" offset=".68"/><stop stop-color="#E5E5E5" offset=".688"/><stop stop-color="#E4E4E4" offset=".695"/><stop stop-color="#E3E3E3" offset=".699"/><stop stop-color="#E2E2E2" offset=".703"/><stop stop-color="#E2E2E2" offset=".707"/><stop stop-color="#E1E1E1" offset=".711"/><stop stop-color="#E1E1E1" offset=".715"/><stop stop-color="#E0E0E0" offset=".719"/><stop stop-color="#E0E0E0" offset=".723"/><stop stop-color="#DFDFDF" offset=".727"/><stop stop-color="#DFDFDF" offset=".73"/><stop stop-color="#DEDEDE" offset=".734"/><stop stop-color="#DEDEDE" offset=".738"/><stop stop-color="#DDD" offset=".742"/><stop stop-color="#DDD" offset=".746"/><stop stop-color="#DCDCDC" offset=".75"/><stop stop-color="#DCDCDC" offset=".754"/><stop stop-color="#DBDBDB" offset=".758"/><stop stop-color="#DBDBDB" offset=".762"/><stop stop-color="#DADADA" offset=".766"/><stop stop-color="#DADADA" offset=".77"/><stop stop-color="#D9D9D9" offset=".773"/><stop stop-color="#D9D9D9" offset=".777"/><stop stop-color="#D8D8D8" offset=".781"/><stop stop-color="#D8D8D8" offset=".785"/><stop stop-color="#D7D7D7" offset=".789"/><stop stop-color="#D7D7D7" offset=".793"/><stop stop-color="#D6D6D6" offset=".797"/><stop stop-color="#D5D5D5" offset=".801"/><stop stop-color="#D5D5D5" offset=".805"/><stop stop-color="#D4D4D4" offset=".809"/><stop stop-color="#D4D4D4" offset=".813"/><stop stop-color="#D3D3D3" offset=".816"/><stop stop-color="#D3D3D3" offset=".82"/><stop stop-color="#D2D2D2" offset=".824"/><stop stop-color="#D2D2D2" offset=".828"/><stop stop-color="#D1D1D1" offset=".832"/><stop stop-color="#D1D1D1" offset=".836"/><stop stop-color="#D0D0D0" offset=".84"/><stop stop-color="#D0D0D0" offset=".844"/><stop stop-color="#CFCFCF" offset=".848"/><stop stop-color="#CFCFCF" offset=".852"/><stop stop-color="#CECECE" offset=".855"/><stop stop-color="#CDCDCD" offset=".859"/><stop stop-color="#CCC" offset=".863"/><stop stop-color="#CCC" offset=".867"/><stop stop-color="#CBCBCB" offset=".871"/><stop stop-color="#CACACA" offset=".875"/><stop stop-color="#C9C9C9" offset=".879"/><stop stop-color="#C9C9C9" offset=".883"/><stop stop-color="#C8C8C8" offset=".887"/><stop stop-color="#C7C7C7" offset=".891"/><stop stop-color="#C6C6C6" offset=".895"/><stop stop-color="#C6C6C6" offset=".898"/><stop stop-color="#C5C5C5" offset=".902"/><stop stop-color="#C4C4C4" offset=".906"/><stop stop-color="#C3C3C3" offset=".91"/><stop stop-color="#C3C3C3" offset=".914"/><stop stop-color="#C2C2C2" offset=".918"/><stop stop-color="#C1C1C1" offset=".922"/><stop stop-color="#C0C0C0" offset=".926"/><stop stop-color="#C0C0C0" offset=".93"/><stop stop-color="#BFBFBF" offset=".934"/><stop stop-color="#BEBEBE" offset=".938"/><stop stop-color="#BDBDBD" offset=".941"/><stop stop-color="#BDBDBD" offset=".945"/><stop stop-color="#BCBCBC" offset=".949"/><stop stop-color="#BBB" offset=".953"/><stop stop-color="#BABABA" offset=".957"/><stop stop-color="#BABABA" offset=".961"/><stop stop-color="#B9B9B9" offset=".965"/><stop stop-color="#B8B8B8" offset=".969"/><stop stop-color="#B7B7B7" offset=".973"/><stop stop-color="#B7B7B7" offset=".977"/><stop stop-color="#B6B6B6" offset=".98"/><stop stop-color="#B5B5B5" offset=".984"/><stop stop-color="#B4B4B4" offset=".988"/><stop stop-color="#B4B4B4" offset=".992"/><stop stop-color="#B3B3B3" offset="1"/></linearGradient></defs><g clip-path="url(#a)"><g clip-path="url(#b)"><path fill="url(#c)" d="M 7.527344 7.527344 L 7.527344 367.472656 L 367.472656 367.472656 L 367.472656 7.527344 Z M 7.527344 7.527344"/></g></g><path transform="scale(.65445)" fill="none" d="M 91.50093 11.501781 L 481.49905 11.501781 C 484.119332 11.501781 486.733644 11.627125 489.341988 11.883781 C 491.950331 12.140437 494.5348 12.528406 497.107331 13.03575 C 499.679863 13.549062 502.216581 14.18175 504.723456 14.94575 C 507.230331 15.703781 509.695425 16.587156 512.112769 17.589906 C 514.536081 18.592656 516.899706 19.708812 519.209612 20.944344 C 521.519519 22.179875 523.769737 23.528812 525.948331 24.985187 C 528.126925 26.435593 530.227925 27.999406 532.251331 29.658718 C 534.274737 31.324 536.214581 33.078812 538.070862 34.929125 C 539.921175 36.785406 541.675987 38.72525 543.341268 40.748656 C 545.000581 42.772062 546.564393 44.873062 548.0148 47.051656 C 549.471175 49.230249 550.820112 51.480468 552.055643 53.790374 C 553.291174 56.100281 554.407331 58.463906 555.410081 60.887218 C 556.412831 63.304562 557.296206 65.769656 558.054237 68.27653 C 558.818237 70.783405 559.450924 73.320124 559.964237 75.892655 C 560.471581 78.465187 560.859549 81.049655 561.116206 83.657999 C 561.372862 86.266343 561.498206 88.880655 561.498206 91.500936 L 561.498206 481.499057 C 561.498206 484.119338 561.372862 486.733651 561.116206 489.341995 C 560.859549 491.950338 560.471581 494.534807 559.964237 497.107338 C 559.450924 499.679869 558.818237 502.216588 558.054237 504.723463 C 557.296206 507.230338 556.412831 509.695432 555.410081 512.112776 C 554.407331 514.536088 553.291174 516.899713 552.055643 519.209619 C 550.820112 521.519525 549.471175 523.769744 548.0148 525.948338 C 546.564393 528.126932 545.000581 530.227932 543.341268 532.251338 C 541.675987 534.274744 539.921175 536.214588 538.070862 538.070869 C 536.214581 539.921182 534.274737 541.675994 532.251331 543.341275 C 530.227925 545.000588 528.126925 546.5644 525.948331 548.014806 C 523.769737 549.471181 521.519519 550.820119 519.209612 552.05565 C 516.899706 553.291181 514.536081 554.407338 512.112769 555.410088 C 509.695425 556.412838 507.230331 557.296213 504.723456 558.054244 C 502.216581 558.818244 499.679863 559.450931 497.107331 559.964244 C 494.5348 560.471588 491.950331 560.859556 489.341988 561.116213 C 486.733644 561.372869 484.119332 561.498213 481.49905 561.498213 L 91.50093 561.498213 C 88.880648 561.498213 86.266336 561.372869 83.657992 561.116213 C 81.049648 560.859556 78.46518 560.471588 75.892649 559.964244 C 73.320117 559.450931 70.783399 558.818244 68.276524 558.054244 C 65.769649 557.296213 63.304555 556.412838 60.887211 555.410088 C 58.463899 554.407338 56.100274 553.291181 53.790368 552.05565 C 51.480461 550.820119 49.230243 549.471181 47.051649 548.014806 C 44.873055 546.5644 42.772055 545.000588 40.748649 543.341275 C 38.725243 541.675994 36.785399 539.921182 34.929118 538.070869 C 33.078805 536.214588 31.323993 534.274744 29.658712 532.251338 C 27.999399 530.227932 26.435587 528.126932 24.98518 525.948338 C 23.528805 523.769744 22.179868 521.519525 20.944337 519.209619 C 19.708805 516.899713 18.592649 514.536088 17.589899 512.112776 C 16.587149 509.695432 15.703774 507.230338 14.945743 504.723463 C 14.181743 502.216588 13.549055 499.679869 13.035743 497.107338 C 12.528399 494.534807 12.14043 491.950338 11.883774 489.341995 C 11.627118 486.733651 11.501774 484.119338 11.501774 481.499057 L 11.501774 91.500936 C 11.501774 88.880655 11.627118 86.266343 11.883774 83.657999 C 12.14043 81.049655 12.528399 78.465187 13.035743 75.892655 C 13.549055 73.320124 14.181743 70.783405 14.945743 68.27653 C 15.703774 65.769656 16.587149 63.304562 17.589899 60.887218 C 18.592649 58.463906 19.708805 56.100281 20.944337 53.790374 C 22.179868 51.480468 23.528805 49.230249 24.98518 47.051656 C 26.435587 44.873062 27.999399 42.772062 29.658712 40.748656 C 31.323993 38.72525 33.078805 36.785406 34.929118 34.929125 C 36.785399 33.078812 38.725243 31.324 40.748649 29.658718 C 42.772055 27.999406 44.873055 26.435593 47.051649 24.985187 C 49.230243 23.528812 51.480461 22.179875 53.790368 20.944344 C 56.100274 19.708812 58.463899 18.592656 60.887211 17.589906 C 63.304555 16.587156 65.769649 15.703781 68.276524 14.94575 C 70.783399 14.18175 73.320117 13.549062 75.892649 13.03575 C 78.46518 12.528406 81.049648 12.140437 83.657992 11.883781 C 86.266336 11.627125 88.880648 11.501781 91.50093 11.501781 Z M 91.50093 11.501781" stroke="#808080" stroke-width="23" stroke-miterlimit="10"/><g clip-path="url(#d)"><g clip-path="url(#e)"><path fill="url(#f)" d="M 30.433594 30.433594 L 30.433594 344.566406 L 344.566406 344.566406 L 344.566406 30.433594 Z M 30.433594 30.433594"/></g></g><path transform="scale(.65445)" fill="none" d="M 436.500645 286.499997 L 136.499335 286.499997" stroke="#000" stroke-width="20" stroke-miterlimit="10"/></svg>